<svg width="260" height="38" viewBox="0 0 260 38" fill="none" xmlns="http://www.w3.org/2000/svg">
<g filter="url(#filter0_d_1_3)">
<path d="M4.22852 23V21.1543L6.61621 20.7441V3.94238L4.22852 3.53223V1.67188H20.2686V6.79883H17.9541L17.6318 3.91309H9.50195V11.2959H17.3096V13.5664H9.50195V20.7441L11.8896 21.1543V23H4.22852ZM28.4277 23.3076C26.9629 23.3076 25.6885 22.9756 24.6045 22.3115C23.5205 21.6377 22.6807 20.7051 22.085 19.5137C21.499 18.3223 21.2061 16.9453 21.2061 15.3828V14.7383C21.2061 13.2344 21.5137 11.8916 22.1289 10.71C22.7539 9.51855 23.5791 8.58105 24.6045 7.89746C25.6396 7.2041 26.7676 6.85742 27.9883 6.85742C30.1172 6.85742 31.7285 7.50195 32.8223 8.79102C33.9258 10.0801 34.4775 11.7988 34.4775 13.9473V15.749H24.1943L24.1504 15.8223C24.1797 17.3457 24.5654 18.6006 25.3076 19.5869C26.0498 20.5635 27.0898 21.0518 28.4277 21.0518C29.4043 21.0518 30.2588 20.915 30.9912 20.6416C31.7334 20.3584 32.373 19.9727 32.9102 19.4844L34.0381 21.3594C33.4717 21.9062 32.7197 22.3701 31.7822 22.751C30.8545 23.1221 29.7363 23.3076 28.4277 23.3076ZM24.2822 13.4932H31.5918V13.1123C31.5918 11.9795 31.2891 11.0322 30.6836 10.2705C30.0781 9.50879 29.1797 9.12793 27.9883 9.12793C27.0215 9.12793 26.1963 9.53809 25.5127 10.3584C24.8291 11.1689 24.4092 12.1895 24.2529 13.4199L24.2822 13.4932ZM36.5869 23V21.1543L38.9746 20.7441V2.41895L36.5869 2.00879V0.148438H41.8604V20.7441L44.248 21.1543V23H36.5869ZM46.2109 23V21.1543L48.5986 20.7441V9.4209L46.2109 9.01074V7.15039H51.4844V20.7441L53.8721 21.1543V23H46.2109ZM48.4521 3.23926V0.148438H51.4844V3.23926H48.4521ZM55.4248 29.0938V27.2334L57.666 26.8232V9.4209L55.2783 9.01074V7.15039H60.1416L60.4053 9.08398C61.4893 7.59961 63.0078 6.85742 64.9609 6.85742C66.2695 6.85742 67.3877 7.21387 68.3154 7.92676C69.2432 8.62988 69.9512 9.62109 70.4395 10.9004C70.9277 12.1699 71.1719 13.6592 71.1719 15.3682V15.6758C71.1719 17.1992 70.9229 18.5322 70.4248 19.6748C69.9365 20.8174 69.2334 21.7109 68.3154 22.3555C67.3975 22.9902 66.2939 23.3076 65.0049 23.3076C63.0811 23.3076 61.5967 22.6582 60.5518 21.3594V26.8232L63.0713 27.2334V29.0938H55.4248ZM64.1113 21.0518C65.4785 21.0518 66.5137 20.5537 67.2168 19.5576C67.9199 18.5615 68.2715 17.2676 68.2715 15.6758V15.3682C68.2715 13.5615 67.9199 12.082 67.2168 10.9297C66.5137 9.77734 65.4688 9.20117 64.082 9.20117C63.2617 9.20117 62.5586 9.38672 61.9727 9.75781C61.3867 10.1289 60.9131 10.6367 60.5518 11.2812V19.001C60.9131 19.6553 61.3818 20.1631 61.958 20.5244C62.5439 20.876 63.2617 21.0518 64.1113 21.0518ZM81.2207 23.3076C79.7559 23.3076 78.4814 22.9756 77.3975 22.3115C76.3135 21.6377 75.4736 20.7051 74.8779 19.5137C74.292 18.3223 73.999 16.9453 73.999 15.3828V14.7383C73.999 13.2344 74.3066 11.8916 74.9219 10.71C75.5469 9.51855 76.3721 8.58105 77.3975 7.89746C78.4326 7.2041 79.5605 6.85742 80.7812 6.85742C82.9102 6.85742 84.5215 7.50195 85.6152 8.79102C86.7188 10.0801 87.2705 11.7988 87.2705 13.9473V15.749H76.9873L76.9434 15.8223C76.9727 17.3457 77.3584 18.6006 78.1006 19.5869C78.8428 20.5635 79.8828 21.0518 81.2207 21.0518C82.1973 21.0518 83.0518 20.915 83.7842 20.6416C84.5264 20.3584 85.166 19.9727 85.7031 19.4844L86.8311 21.3594C86.2646 21.9062 85.5127 22.3701 84.5752 22.751C83.6475 23.1221 82.5293 23.3076 81.2207 23.3076ZM77.0752 13.4932H84.3848V13.1123C84.3848 11.9795 84.082 11.0322 83.4766 10.2705C82.8711 9.50879 81.9727 9.12793 80.7812 9.12793C79.8145 9.12793 78.9893 9.53809 78.3057 10.3584C77.6221 11.1689 77.2021 12.1895 77.0459 13.4199L77.0752 13.4932ZM103.223 23.3076C101.934 23.3076 100.825 22.9902 99.8975 22.3555C98.9795 21.7109 98.2764 20.8174 97.7881 19.6748C97.2998 18.5322 97.0557 17.1992 97.0557 15.6758V15.3682C97.0557 13.6689 97.2998 12.1797 97.7881 10.9004C98.2764 9.62109 98.9844 8.62988 99.9121 7.92676C100.84 7.21387 101.953 6.85742 103.252 6.85742C104.189 6.85742 105.015 7.0332 105.728 7.38477C106.45 7.72656 107.065 8.22461 107.573 8.87891V2.41895L105.186 2.00879V0.148438H110.459V20.7441L112.847 21.1543V23H107.954L107.72 21.1104C106.665 22.5752 105.166 23.3076 103.223 23.3076ZM103.955 20.9639C104.814 20.9639 105.537 20.7686 106.123 20.3779C106.709 19.9873 107.192 19.4355 107.573 18.7227V11.3691C107.202 10.7051 106.719 10.1777 106.123 9.78711C105.527 9.39648 104.814 9.20117 103.984 9.20117C102.607 9.20117 101.587 9.77246 100.923 10.915C100.269 12.0576 99.9414 13.542 99.9414 15.3682V15.6758C99.9414 17.2676 100.269 18.5469 100.923 19.5137C101.577 20.4805 102.588 20.9639 103.955 20.9639ZM121.973 23.3076C120.508 23.3076 119.233 22.9756 118.149 22.3115C117.065 21.6377 116.226 20.7051 115.63 19.5137C115.044 18.3223 114.751 16.9453 114.751 15.3828V14.7383C114.751 13.2344 115.059 11.8916 115.674 10.71C116.299 9.51855 117.124 8.58105 118.149 7.89746C119.185 7.2041 120.312 6.85742 121.533 6.85742C123.662 6.85742 125.273 7.50195 126.367 8.79102C127.471 10.0801 128.022 11.7988 128.022 13.9473V15.749H117.739L117.695 15.8223C117.725 17.3457 118.11 18.6006 118.853 19.5869C119.595 20.5635 120.635 21.0518 121.973 21.0518C122.949 21.0518 123.804 20.915 124.536 20.6416C125.278 20.3584 125.918 19.9727 126.455 19.4844L127.583 21.3594C127.017 21.9062 126.265 22.3701 125.327 22.751C124.399 23.1221 123.281 23.3076 121.973 23.3076ZM117.827 13.4932H125.137V13.1123C125.137 11.9795 124.834 11.0322 124.229 10.2705C123.623 9.50879 122.725 9.12793 121.533 9.12793C120.566 9.12793 119.741 9.53809 119.058 10.3584C118.374 11.1689 117.954 12.1895 117.798 13.4199L117.827 13.4932ZM137.69 23V21.1543L139.272 20.9346L146.729 1.67188H149.204L156.528 20.9346L158.096 21.1543V23H151.973V21.1543L153.584 20.876L152.178 16.9502H143.638L142.188 20.876L143.799 21.1543V23H137.69ZM144.531 14.5332H151.299L148.164 5.86133L147.988 5.37793H147.9L147.725 5.86133L144.531 14.5332ZM160.073 23V21.1543L162.461 20.7441V2.41895L160.073 2.00879V0.148438H165.347V20.7441L167.734 21.1543V23H160.073ZM169.8 23V21.1543L172.188 20.7441V9.4209L169.8 9.01074V7.15039H174.78L174.971 9.21582C175.479 8.46387 176.133 7.88281 176.934 7.47266C177.734 7.0625 178.662 6.85742 179.717 6.85742C180.771 6.85742 181.675 7.10156 182.427 7.58984C183.188 8.07812 183.76 8.81055 184.141 9.78711C184.639 8.88867 185.298 8.17578 186.118 7.64844C186.938 7.12109 187.896 6.85742 188.989 6.85742C190.61 6.85742 191.89 7.41406 192.827 8.52734C193.765 9.63086 194.233 11.2959 194.233 13.5225V20.7441L196.621 21.1543V23H188.945V21.1543L191.333 20.7441V13.4932C191.333 11.9307 191.064 10.8271 190.527 10.1826C189.99 9.52832 189.194 9.20117 188.14 9.20117C187.134 9.20117 186.323 9.55762 185.708 10.2705C185.103 10.9736 184.751 11.8623 184.653 12.9365V20.7441L187.041 21.1543V23H179.38V21.1543L181.768 20.7441V13.4932C181.768 12.0088 181.489 10.9248 180.933 10.2412C180.386 9.54785 179.59 9.20117 178.545 9.20117C177.666 9.20117 176.943 9.38184 176.377 9.74316C175.811 10.1045 175.376 10.6123 175.073 11.2666V20.7441L177.461 21.1543V23H169.8ZM205.762 23.3076C204.297 23.3076 203.022 22.9756 201.938 22.3115C200.854 21.6377 200.015 20.7051 199.419 19.5137C198.833 18.3223 198.54 16.9453 198.54 15.3828V14.7383C198.54 13.2344 198.848 11.8916 199.463 10.71C200.088 9.51855 200.913 8.58105 201.938 7.89746C202.974 7.2041 204.102 6.85742 205.322 6.85742C207.451 6.85742 209.062 7.50195 210.156 8.79102C211.26 10.0801 211.812 11.7988 211.812 13.9473V15.749H201.528L201.484 15.8223C201.514 17.3457 201.899 18.6006 202.642 19.5869C203.384 20.5635 204.424 21.0518 205.762 21.0518C206.738 21.0518 207.593 20.915 208.325 20.6416C209.067 20.3584 209.707 19.9727 210.244 19.4844L211.372 21.3594C210.806 21.9062 210.054 22.3701 209.116 22.751C208.188 23.1221 207.07 23.3076 205.762 23.3076ZM201.616 13.4932H208.926V13.1123C208.926 11.9795 208.623 11.0322 208.018 10.2705C207.412 9.50879 206.514 9.12793 205.322 9.12793C204.355 9.12793 203.53 9.53809 202.847 10.3584C202.163 11.1689 201.743 12.1895 201.587 13.4199L201.616 13.4932ZM213.965 23V21.1543L216.353 20.7441V9.4209L213.965 9.01074V7.15039H219.238V20.7441L221.626 21.1543V23H213.965ZM216.206 3.23926V0.148438H219.238V3.23926H216.206ZM229.844 23.3076C228.555 23.3076 227.446 22.9902 226.519 22.3555C225.601 21.7109 224.897 20.8174 224.409 19.6748C223.921 18.5322 223.677 17.1992 223.677 15.6758V15.3682C223.677 13.6689 223.921 12.1797 224.409 10.9004C224.897 9.62109 225.605 8.62988 226.533 7.92676C227.461 7.21387 228.574 6.85742 229.873 6.85742C230.811 6.85742 231.636 7.0332 232.349 7.38477C233.071 7.72656 233.687 8.22461 234.194 8.87891V2.41895L231.807 2.00879V0.148438H237.08V20.7441L239.468 21.1543V23H234.575L234.341 21.1104C233.286 22.5752 231.787 23.3076 229.844 23.3076ZM230.576 20.9639C231.436 20.9639 232.158 20.7686 232.744 20.3779C233.33 19.9873 233.813 19.4355 234.194 18.7227V11.3691C233.823 10.7051 233.34 10.1777 232.744 9.78711C232.148 9.39648 231.436 9.20117 230.605 9.20117C229.229 9.20117 228.208 9.77246 227.544 10.915C226.89 12.0576 226.562 13.542 226.562 15.3682V15.6758C226.562 17.2676 226.89 18.5469 227.544 19.5137C228.198 20.4805 229.209 20.9639 230.576 20.9639ZM246.587 23.3076C244.937 23.3076 243.682 22.9072 242.822 22.1064C241.963 21.2959 241.533 20.1582 241.533 18.6934C241.533 17.1895 242.148 15.9834 243.379 15.0752C244.609 14.1572 246.318 13.6982 248.506 13.6982H251.333V12.1455C251.333 11.1885 251.04 10.4463 250.454 9.91895C249.878 9.3916 249.062 9.12793 248.008 9.12793C247.344 9.12793 246.768 9.21094 246.279 9.37695C245.791 9.5332 245.347 9.75293 244.946 10.0361L244.639 12.248H242.412V8.61523C243.848 7.44336 245.728 6.85742 248.052 6.85742C249.976 6.85742 251.484 7.31641 252.578 8.23438C253.672 9.15234 254.219 10.4658 254.219 12.1748V19.8066C254.219 20.0117 254.219 20.2119 254.219 20.4072C254.229 20.6025 254.243 20.7979 254.263 20.9932L255.801 21.1543V23H251.655C251.489 22.1992 251.387 21.4717 251.348 20.8174C250.791 21.5303 250.093 22.126 249.253 22.6045C248.423 23.0732 247.534 23.3076 246.587 23.3076ZM247.012 20.8906C247.969 20.8906 248.843 20.6611 249.634 20.2021C250.425 19.7432 250.991 19.1914 251.333 18.5469V15.6758H248.403C247.075 15.6758 246.079 15.9932 245.415 16.6279C244.751 17.2627 244.419 17.9707 244.419 18.752C244.419 20.1777 245.283 20.8906 247.012 20.8906Z" fill="white"/>
</g>
<defs>
<filter id="filter0_d_1_3" x="0.228516" y="0.148438" width="259.572" height="36.9453" filterUnits="userSpaceOnUse" color-interpolation-filters="sRGB">
<feFlood flood-opacity="0" result="BackgroundImageFix"/>
<feColorMatrix in="SourceAlpha" type="matrix" values="0 0 0 0 0 0 0 0 0 0 0 0 0 0 0 0 0 0 127 0" result="hardAlpha"/>
<feOffset dy="4"/>
<feGaussianBlur stdDeviation="2"/>
<feComposite in2="hardAlpha" operator="out"/>
<feColorMatrix type="matrix" values="0 0 0 0 0 0 0 0 0 0 0 0 0 0 0 0 0 0 0.25 0"/>
<feBlend mode="normal" in2="BackgroundImageFix" result="effect1_dropShadow_1_3"/>
<feBlend mode="normal" in="SourceGraphic" in2="effect1_dropShadow_1_3" result="shape"/>
</filter>
</defs>
</svg>
